<svg xmlns="http://www.w3.org/2000/svg" width="19.811" height="16.455" viewBox="0 0 19.811 16.455">
  <g id="arrow" transform="translate(0 0)">
    <g id="Group_1" data-name="Group 1">
      <path id="Path_1" data-name="Path 1" d="M1.114,48.348l-.031.007H14.339l-4.167-4.177a1.094,1.094,0,0,1,0-1.539l.648-.649a1.085,1.085,0,0,1,1.531,0L19.5,49.133a1.092,1.092,0,0,1,0,1.536l-7.144,7.144a1.086,1.086,0,0,1-1.531,0l-.648-.649a1.073,1.073,0,0,1-.316-.765,1.041,1.041,0,0,1,.316-.751l4.214-4.2H1.1A1.123,1.123,0,0,1,0,50.337v-.918A1.1,1.1,0,0,1,1.114,48.348Z" transform="translate(0 -41.674)" fill="#fff"/>
    </g>
  </g>
</svg>
