<svg id="behance-network" xmlns="http://www.w3.org/2000/svg" width="35" height="35" viewBox="0 0 35 35">
  <g id="Group_28" data-name="Group 28">
    <path id="Path_81" data-name="Path 81" d="M31.454,36.463c0-2.345-1.6-2.345-1.6-2.345H23.294V39.15h6.158C30.516,39.15,31.454,38.81,31.454,36.463Z" transform="translate(-15.642 -22.48)" fill="#fff"/>
    <path id="Path_82" data-name="Path 82" d="M29.859,50.846H23.294v6.027h6.262c.942-.027,2.681-.322,2.681-2.93C32.236,50.814,29.859,50.846,29.859,50.846Z" transform="translate(-15.723 -33.696)" fill="#fff"/>
    <path id="Path_83" data-name="Path 83" d="M65.408,44.011a4.034,4.034,0,0,0-3.969,3.477h7.408A3.356,3.356,0,0,0,65.408,44.011Z" transform="translate(-41.06 -28.751)" fill="#fff"/>
    <path id="Path_84" data-name="Path 84" d="M17.5,0A17.5,17.5,0,1,0,35,17.5,17.5,17.5,0,0,0,17.5,0Zm3.815,10.329h6.55v1.955h-6.55ZM18,20.583c0,4.846-5.043,4.686-5.043,4.686H4.7V9.394h8.261c2.511,0,4.493,1.386,4.493,4.227a2.756,2.756,0,0,1-2.423,3.021C18.225,16.642,18,20.583,18,20.583Zm6.819,2.5c2.639,0,2.545-1.708,2.545-1.708h2.794c0,4.533-5.432,4.222-5.432,4.222a5.632,5.632,0,0,1-6.1-6.069s-.005-6.1,6.1-6.1c6.426,0,5.526,6.891,5.526,6.891H22.03A2.582,2.582,0,0,0,24.824,23.087Z" fill="#fff"/>
  </g>
</svg>
