<svg xmlns="http://www.w3.org/2000/svg" width="13.493" height="12.414" viewBox="0 0 13.493 12.414">
  <g id="comment" transform="translate(-0.001 1.332)">
    <path id="Path_94" data-name="Path 94" d="M11.638-1.332H1.856A1.857,1.857,0,0,0,0,.523V6.51A1.857,1.857,0,0,0,1.849,8.365v2.717l3.9-2.717h5.885A1.857,1.857,0,0,0,13.493,6.51V.523a1.857,1.857,0,0,0-1.855-1.855ZM12.7,6.51a1.066,1.066,0,0,1-1.064,1.064H5.505L2.64,9.568V7.574H1.856A1.066,1.066,0,0,1,.791,6.51V.523A1.066,1.066,0,0,1,1.856-.541h9.783A1.066,1.066,0,0,1,12.7.523Zm0,0"/>
    <path id="Path_95" data-name="Path 95" d="M171.293,131.172h6.27v.791h-6.27Zm0,0" transform="translate(-167.681 -129.711)"/>
    <path id="Path_96" data-name="Path 96" d="M171.293,211.172h6.27v.791h-6.27Zm0,0" transform="translate(-167.681 -208.024)"/>
    <path id="Path_97" data-name="Path 97" d="M171.293,291.172h6.27v.791h-6.27Zm0,0" transform="translate(-167.681 -286.337)"/>
  </g>
</svg>
