<svg xmlns="http://www.w3.org/2000/svg" width="35" height="35" viewBox="0 0 35 35">
  <path id="github-image" d="M17.5.5A17.724,17.724,0,0,0,0,18.444,17.908,17.908,0,0,0,11.966,35.469c.875.169,1.2-.387,1.2-.863,0-.426-.015-1.555-.022-3.051-4.868,1.082-5.895-2.407-5.895-2.407A4.729,4.729,0,0,0,5.3,26.523c-1.585-1.112.123-1.09.123-1.09A3.678,3.678,0,0,1,8.1,27.282a3.679,3.679,0,0,0,5.1,1.493,3.861,3.861,0,0,1,1.108-2.4c-3.886-.449-7.971-1.992-7.971-8.867a7.02,7.02,0,0,1,1.8-4.815,6.531,6.531,0,0,1,.153-4.749s1.466-.481,4.812,1.84a16.1,16.1,0,0,1,8.75,0c3.325-2.321,4.791-1.84,4.791-1.84a6.712,6.712,0,0,1,.175,4.749,7.049,7.049,0,0,1,1.794,4.815c0,6.893-4.091,8.411-7.984,8.852a4.356,4.356,0,0,1,1.181,3.32c0,2.4-.022,4.331-.022,4.914,0,.47.306,1.032,1.2.852A17.849,17.849,0,0,0,35,18.444,17.727,17.727,0,0,0,17.5.5Z" transform="translate(0 -0.5)" fill="#fff"/>
</svg>
