<svg id="instagram-sketched" xmlns="http://www.w3.org/2000/svg" width="36" height="36" viewBox="0 0 36 36">
  <path id="Path_85" data-name="Path 85" d="M213.891,210.445A3.445,3.445,0,1,1,210.445,207,3.445,3.445,0,0,1,213.891,210.445Zm0,0" transform="translate(-192.445 -192.445)" fill="#fff"/>
  <path id="Path_86" data-name="Path 86" d="M152.016,137.866a3.423,3.423,0,0,0-1.962-1.962,5.719,5.719,0,0,0-1.919-.356c-1.09-.05-1.417-.06-4.177-.06s-3.087.01-4.177.06a5.722,5.722,0,0,0-1.919.356,3.424,3.424,0,0,0-1.962,1.962,5.721,5.721,0,0,0-.356,1.919c-.05,1.09-.06,1.417-.06,4.177s.011,3.087.06,4.177a5.719,5.719,0,0,0,.356,1.919,3.423,3.423,0,0,0,1.962,1.962,5.712,5.712,0,0,0,1.919.356c1.09.05,1.416.06,4.176.06s3.087-.01,4.177-.06a5.712,5.712,0,0,0,1.919-.356,3.423,3.423,0,0,0,1.962-1.962,5.724,5.724,0,0,0,.356-1.919c.05-1.09.06-1.417.06-4.177s-.01-3.087-.06-4.177A5.712,5.712,0,0,0,152.016,137.866Zm-8.057,11.4a5.307,5.307,0,1,1,5.308-5.307A5.308,5.308,0,0,1,143.958,149.27Zm5.517-9.585a1.24,1.24,0,1,1,1.24-1.24A1.24,1.24,0,0,1,149.476,139.685Zm0,0" transform="translate(-125.958 -125.962)" fill="#fff"/>
  <path id="Path_87" data-name="Path 87" d="M18,0A18,18,0,1,0,36,18,18,18,0,0,0,18,0ZM28.274,22.261a7.583,7.583,0,0,1-.48,2.509,5.285,5.285,0,0,1-3.023,3.023,7.588,7.588,0,0,1-2.509.48c-1.1.05-1.454.062-4.261.062s-3.159-.012-4.262-.062a7.589,7.589,0,0,1-2.509-.48A5.285,5.285,0,0,1,8.207,24.77a7.581,7.581,0,0,1-.48-2.509c-.051-1.1-.063-1.455-.063-4.262s.012-3.159.062-4.261a7.584,7.584,0,0,1,.48-2.509A5.289,5.289,0,0,1,11.23,8.207a7.59,7.59,0,0,1,2.509-.48c1.1-.05,1.454-.062,4.261-.062s3.159.012,4.261.063a7.592,7.592,0,0,1,2.509.48,5.286,5.286,0,0,1,3.023,3.023,7.582,7.582,0,0,1,.481,2.509c.05,1.1.062,1.454.062,4.261S28.324,21.159,28.274,22.261Zm0,0" fill="#fff"/>
</svg>
