<svg xmlns="http://www.w3.org/2000/svg" width="35.315" height="35.244" viewBox="0 0 35.315 35.244">
  <g id="internet" transform="translate(0 -0.316)">
    <path id="Path_62" data-name="Path 62" d="M231.816,352.051c2.7-.384,5.068-3.2,6.558-7.365a32.056,32.056,0,0,0-6.558-.772Zm0,0" transform="translate(-213.527 -316.49)" fill="#fff"/>
    <path id="Path_63" data-name="Path 63" d="M280.049,364.007c.16-.046.319-.093.476-.144.133-.043.264-.089.4-.135.155-.054.31-.109.464-.167.131-.05.261-.1.392-.156l.449-.189c.13-.057.259-.117.387-.177.146-.069.291-.139.435-.211q.19-.1.379-.2.212-.114.422-.233c.126-.071.248-.143.371-.217l.408-.252c.121-.077.242-.155.361-.236s.264-.183.4-.276.234-.168.349-.252.256-.2.383-.3.225-.179.335-.271c.126-.1.247-.213.369-.322.107-.1.215-.19.32-.287.121-.112.238-.229.355-.345.1-.1.2-.2.3-.3l.055-.06a21.219,21.219,0,0,0-4.325-1.664,15.662,15.662,0,0,1-4.034,6.55l.153-.037c.135-.038.268-.08.4-.119Zm0,0" transform="translate(-257.446 -329.108)" fill="#fff"/>
    <path id="Path_64" data-name="Path 64" d="M344.4,231.684h-7.568a32.731,32.731,0,0,1-1.274,8.732,21.95,21.95,0,0,1,4.79,1.906A17.633,17.633,0,0,0,344.4,231.684Zm0,0" transform="translate(-309.086 -213.114)" fill="#fff"/>
    <path id="Path_65" data-name="Path 65" d="M231.816,117.363h8.2a31.574,31.574,0,0,0-1.243-8.421,33.245,33.245,0,0,1-6.954.829Zm0,0" transform="translate(-213.527 -100.056)" fill="#fff"/>
    <path id="Path_66" data-name="Path 66" d="M231.816.316V8.453a32.077,32.077,0,0,0,6.558-.772C236.884,3.519,234.517.7,231.816.316Zm0,0" transform="translate(-213.527)" fill="#fff"/>
    <path id="Path_67" data-name="Path 67" d="M231.816,239.275a33.269,33.269,0,0,1,6.954.83,31.575,31.575,0,0,0,1.243-8.421h-8.2Zm0,0" transform="translate(-213.527 -213.114)" fill="#fff"/>
    <path id="Path_68" data-name="Path 68" d="M340.348,80.844a21.95,21.95,0,0,1-4.79,1.906,32.728,32.728,0,0,1,1.274,8.732H344.4a17.638,17.638,0,0,0-4.052-10.638Zm0,0" transform="translate(-309.085 -74.174)" fill="#fff"/>
    <path id="Path_69" data-name="Path 69" d="M287.82,11.681c-.018-.019-.036-.039-.054-.059-.1-.1-.2-.2-.305-.3-.117-.116-.234-.232-.355-.345-.1-.1-.213-.19-.32-.287-.122-.108-.245-.218-.37-.323-.109-.092-.221-.18-.332-.269-.126-.1-.256-.2-.386-.3-.114-.086-.23-.169-.346-.252-.132-.095-.264-.19-.4-.28-.118-.08-.238-.157-.358-.233-.137-.088-.273-.174-.412-.257-.122-.073-.245-.145-.368-.215-.141-.081-.283-.159-.425-.235-.126-.063-.252-.132-.379-.2-.145-.073-.292-.144-.442-.213q-.19-.09-.385-.176c-.149-.066-.3-.126-.451-.189-.13-.053-.259-.105-.391-.155-.153-.059-.308-.113-.464-.167-.131-.046-.263-.092-.4-.135-.158-.051-.316-.1-.478-.145-.131-.039-.263-.078-.4-.113-.051-.014-.1-.025-.154-.038a15.664,15.664,0,0,1,4.034,6.55,21.181,21.181,0,0,0,4.329-1.666Zm0,0" transform="translate(-257.41 -5.969)" fill="#fff"/>
    <path id="Path_70" data-name="Path 70" d="M0,91.482H7.568A32.744,32.744,0,0,1,8.842,82.75a21.923,21.923,0,0,1-4.79-1.906A17.634,17.634,0,0,0,0,91.482Zm0,0" transform="translate(0 -74.174)" fill="#fff"/>
    <path id="Path_71" data-name="Path 71" d="M139.253,352.051v-8.137a32.077,32.077,0,0,0-6.558.772C134.184,348.848,136.552,351.667,139.253,352.051Zm0,0" transform="translate(-122.226 -316.49)" fill="#fff"/>
    <path id="Path_72" data-name="Path 72" d="M120.118,231.684h-8.2a31.563,31.563,0,0,0,1.243,8.421,33.22,33.22,0,0,1,6.954-.83Zm0,0" transform="translate(-103.091 -213.114)" fill="#fff"/>
    <path id="Path_73" data-name="Path 73" d="M139.253.316c-2.7.384-5.068,3.2-6.558,7.365a32.034,32.034,0,0,0,6.558.772Zm0,0" transform="translate(-122.226)" fill="#fff"/>
    <path id="Path_74" data-name="Path 74" d="M120.118,109.771a33.245,33.245,0,0,1-6.954-.829,31.562,31.562,0,0,0-1.243,8.421h8.2Zm0,0" transform="translate(-103.092 -100.055)" fill="#fff"/>
    <path id="Path_75" data-name="Path 75" d="M70.548,6.789l-.153.037c-.134.036-.266.076-.4.114-.158.046-.316.093-.475.143-.134.043-.266.09-.4.136-.154.055-.309.109-.462.167-.132.051-.262.1-.393.157l-.449.189c-.13.057-.259.117-.387.177-.146.069-.291.139-.435.211q-.19.1-.379.2-.212.114-.421.233-.19.106-.372.217c-.137.083-.273.168-.408.252s-.242.156-.361.237-.264.183-.4.276-.234.168-.349.253-.252.2-.382.3c-.112.09-.225.179-.335.272-.126.1-.246.212-.368.32s-.217.19-.322.289-.237.228-.354.343c-.1.1-.205.2-.305.3-.018.019-.036.04-.055.059a21.189,21.189,0,0,0,4.325,1.664,15.656,15.656,0,0,1,4.032-6.546Zm0,0" transform="translate(-57.285 -5.962)" fill="#fff"/>
    <path id="Path_76" data-name="Path 76" d="M62.585,359.587c.117.116.234.232.355.345.1.1.213.189.32.286s.245.218.37.323c.109.092.22.18.332.269s.252.2.386.3c.114.085.229.168.345.253.132.095.265.189.4.28.118.08.238.157.358.234.137.088.273.174.412.257q.183.11.368.215.212.121.425.235c.126.063.252.132.379.2.145.073.292.144.442.214q.19.089.385.175c.149.066.3.126.451.189.13.053.259.105.391.155.153.059.308.114.464.167.131.046.263.092.4.135.158.051.316.1.478.145.131.039.263.078.4.113.051.014.1.025.154.038a15.666,15.666,0,0,1-4.034-6.55,21.189,21.189,0,0,0-4.325,1.665c.019.019.036.039.055.059C62.38,359.388,62.482,359.487,62.585,359.587Zm0,0" transform="translate(-57.321 -329.062)" fill="#fff"/>
    <path id="Path_77" data-name="Path 77" d="M4.052,242.321a21.956,21.956,0,0,1,4.79-1.906,32.743,32.743,0,0,1-1.274-8.732H0A17.637,17.637,0,0,0,4.052,242.321Zm0,0" transform="translate(0 -213.113)" fill="#fff"/>
  </g>
</svg>
