<svg xmlns="http://www.w3.org/2000/svg" width="13.23" height="12.679" viewBox="0 0 13.23 12.679">
  <g id="like" transform="translate(0 -10.667)">
    <g id="Group_59" data-name="Group 59" transform="translate(0 10.667)">
      <g id="Group_58" data-name="Group 58" transform="translate(0 0)">
        <path id="Path_98" data-name="Path 98" d="M13.23,18.247a1.225,1.225,0,0,0-.359-.868,1.369,1.369,0,0,0,.353-1.052,1.425,1.425,0,0,0-1.438-1.25H8.381a7.926,7.926,0,0,0,.439-2.2,2.253,2.253,0,0,0-1.654-2.2,1.731,1.731,0,0,0-1,.336.276.276,0,0,0-.1.216v1.869L4.476,16.527l-.066.034v-.105a.276.276,0,0,0-.276-.276H1.378A1.379,1.379,0,0,0,0,17.558v4.41a1.379,1.379,0,0,0,1.378,1.378H3.032a1.381,1.381,0,0,0,1.3-.911,3.593,3.593,0,0,0,1.459.36h5.06a1.268,1.268,0,0,0,1.249-.962A1.244,1.244,0,0,0,12,21a1.236,1.236,0,0,0,.552-1.654A1.235,1.235,0,0,0,13.23,18.247Zm-1.163.68a.276.276,0,0,0-.158.475.683.683,0,0,1-.393,1.179.276.276,0,0,0-.158.475.682.682,0,0,1,.2.658.713.713,0,0,1-.711.53H5.788a2.613,2.613,0,0,1-1.459-.471.276.276,0,0,0-.471.2.828.828,0,0,1-.827.827H1.378a.828.828,0,0,1-.827-.827v-4.41a.828.828,0,0,1,.827-.827H3.859v.276a.277.277,0,0,0,.131.235.282.282,0,0,0,.268.012l.551-.276a.275.275,0,0,0,.127-.131L6.59,13.263a.281.281,0,0,0,.025-.116v-1.78a1.162,1.162,0,0,1,.551-.149,1.82,1.82,0,0,1,1.1,1.654,8.584,8.584,0,0,1-.533,2.383.275.275,0,0,0,.257.374h3.793a.87.87,0,0,1,.889.749.824.824,0,0,1-.392.78.276.276,0,0,0,.019.48.682.682,0,0,1-.234,1.289Z" transform="translate(0 -10.667)"/>
      </g>
    </g>
    <g id="Group_61" data-name="Group 61" transform="translate(3.859 16.731)">
      <g id="Group_60" data-name="Group 60">
        <path id="Path_99" data-name="Path 99" d="M149.609,245.333a.276.276,0,0,0-.276.276v4.961a.276.276,0,0,0,.551,0v-4.961A.276.276,0,0,0,149.609,245.333Z" transform="translate(-149.333 -245.333)"/>
      </g>
    </g>
  </g>
</svg>
