<svg xmlns="http://www.w3.org/2000/svg" xmlns:xlink="http://www.w3.org/1999/xlink" width="605.458" height="389.942" viewBox="0 0 605.458 389.942">
  <defs>
    <clipPath id="clip-path">
      <rect id="Rectangle_11" data-name="Rectangle 11" width="605.458" height="389.942" fill="none"/>
    </clipPath>
  </defs>
  <g id="Group_5" data-name="Group 5" transform="translate(0 0.002)">
    <g id="Group_4" data-name="Group 4" transform="translate(0 -0.002)" clip-path="url(#clip-path)">
      <path id="Path_4" data-name="Path 4" d="M311.71,846.868A22.235,22.235,0,0,0,333.945,869.1H345.2a22.235,22.235,0,0,0,22.236-22.235V828.113H311.71Z" transform="translate(-215.557 -572.663)" fill="#ffffe7"/>
      <path id="Path_5" data-name="Path 5" d="M378.733,843.216A22.235,22.235,0,0,1,356.5,865.451H345.247a22.15,22.15,0,0,1-8.865-1.842,22.143,22.143,0,0,0,14.625,5.494h11.251a22.235,22.235,0,0,0,22.235-22.235V828.113h-5.76Z" transform="translate(-232.618 -572.663)" fill="#edecd6"/>
      <path id="Path_6" data-name="Path 6" d="M222.376,962.076H325.009a5.93,5.93,0,0,0,5.93-5.93H216.446a5.93,5.93,0,0,0,5.93,5.93" transform="translate(-149.679 -661.202)" fill="#ffffe7"/>
      <path id="Path_7" data-name="Path 7" d="M325.009,959.112H222.376a5.923,5.923,0,0,1-5.13-2.965h-.8a5.93,5.93,0,0,0,5.93,5.93H325.009a5.93,5.93,0,0,0,5.93-5.93h-.8a5.923,5.923,0,0,1-5.13,2.965" transform="translate(-149.679 -661.203)" fill="#edecd6"/>
      <path id="Path_8" data-name="Path 8" d="M276.206,835.125h5.75a3.506,3.506,0,0,0,0-7.011h-5.75a7.531,7.531,0,0,0-7.523,7.522v4.086a12.507,12.507,0,0,0,12.493,12.493h.779a3.506,3.506,0,0,0,0-7.011h-.779a5.488,5.488,0,0,1-5.482-5.482v-4.086a.512.512,0,0,1,.511-.511" transform="translate(-185.802 -572.664)" fill="#ffffe7"/>
      <path id="Path_9" data-name="Path 9" d="M593.6,975.37H11.858C5.308,975.37,0,981.376,0,988.784S5.308,1002.2,11.858,1002.2H593.6c6.549,0,11.858-6.006,11.858-13.415S600.148,975.37,593.6,975.37" transform="translate(0.001 -674.496)" fill="#d59e4c"/>
      <rect id="Rectangle_5" data-name="Rectangle 5" width="567.256" height="62.239" transform="translate(19.101 327.703)" fill="#cabfa3"/>
      <rect id="Rectangle_6" data-name="Rectangle 6" width="567.256" height="8.947" transform="translate(19.101 327.704)" fill="#968e7c"/>
      <path id="Path_10" data-name="Path 10" d="M593.6,975.37H11.858C5.308,975.37,0,981.376,0,988.784a14.848,14.848,0,0,0,1.085,5.6c0-.03,0-.059,0-.089,0-7.409,5.309-13.415,11.858-13.415H594.682c4.78,0,8.9,3.2,10.774,7.81-.043-7.368-5.334-13.326-11.857-13.326" transform="translate(0.001 -674.496)" fill="#ffce7f"/>
      <rect id="Rectangle_7" data-name="Rectangle 7" width="28.344" height="38.591" transform="translate(287.248 131.568)" fill="#db7a49"/>
      <path id="Path_11" data-name="Path 11" d="M1143.57,317.889s-3.043-5.956-4.29,2.314,9.372,13.323,9.372,13.323c-7.213-8.132-5.082-15.636-5.082-15.636" transform="translate(-787.775 -218.394)" fill="#a04935"/>
      <path id="Path_12" data-name="Path 12" d="M1080.68,360.322h0a118.3,118.3,0,0,1-13.913,16.429s9.829,5.981-3.269,49.158,30.2,72.673,30.2,72.673c-13.252-36.765-6.84-38.047,12.4-76.521s-25.412-61.739-25.412-61.739" transform="translate(-733.733 -249.172)" fill="#af5b41"/>
      <path id="Path_13" data-name="Path 13" d="M1080.7,360.322h0a118.292,118.292,0,0,1-13.913,16.429s9.828,5.981-3.269,49.158a55.446,55.446,0,0,0-2.429,18.113c4.993-30.764,12.676-33.645,27.211-49.073,8.035-8.529,5.853-19.683,2.3-27.955a68.49,68.49,0,0,0-9.9-6.673" transform="translate(-733.749 -249.172)" fill="#a04935"/>
      <path id="Path_14" data-name="Path 14" d="M850.6,52.9c-30.043,0-57.6,19.6-57.6,54.809,0,18.556,8.973,36.911,21.166,50.561,18.966,21.233,53.9,21.233,72.871,0,12.192-13.65,21.166-32,21.166-50.561,0-35.206-27.559-54.809-57.6-54.809" transform="translate(-548.383 -36.584)" fill="#fd965b"/>
      <path id="Path_15" data-name="Path 15" d="M1127.282,229.368a14.371,14.371,0,1,0,14.371,14.37,14.37,14.37,0,0,0-14.371-14.37" transform="translate(-769.611 -158.614)" fill="#fd965b"/>
      <path id="Path_16" data-name="Path 16" d="M767.75,229.368a14.371,14.371,0,1,0,14.37,14.37,14.37,14.37,0,0,0-14.37-14.37" transform="translate(-520.984 -158.614)" fill="#fd965b"/>
      <path id="Path_17" data-name="Path 17" d="M872.552,19.751c-.03-.031-.061-.06-.09-.092A61.91,61.91,0,0,0,836.969.736c-.1-.015-.2-.024-.3-.039-.937-.142-1.879-.27-2.826-.369-.376-.039-.756-.056-1.133-.089-.676-.058-1.352-.123-2.032-.159Q829.084,0,827.478,0c-.889,0-1.774.028-2.657.069-.317.014-.634.027-.949.046q-1,.062-2,.156-.848.078-1.691.18l-.036,0h0c-31.19,3.753-57.2,31.329-57.964,73.1-2.922,29.22,14.532,64.058,14.532,64.058-10.409-25.421-1.166-58.589-1.166-58.589a21.453,21.453,0,0,1,13.128-10.7,208.958,208.958,0,0,0,28.88-10.668,208.344,208.344,0,0,0,28.218-15.446c15.687,17.914,33.381,29.462,47,31.437-.393-22.634-8.2-41.107-20.224-53.892Z" transform="translate(-526.844 0.002)" fill="#af5b41"/>
      <path id="Path_18" data-name="Path 18" d="M1200.4,486.179l-5.353-.022s-2.3,6.359,4.667,18.639,16.4,8.744,16.4,8.744c-11.722-2.837-15.71-27.36-15.71-27.36" transform="translate(-826.159 -336.191)" fill="#af5b41"/>
      <path id="Path_19" data-name="Path 19" d="M908.477,211.98a80.2,80.2,0,0,0-25.89-1.334c-14.259,1.775-23.922,4.212-29.514,3.67-5.593.541-15.255-1.9-29.514-3.67a80.2,80.2,0,0,0-25.89,1.334,1.4,1.4,0,0,0-1.094,1.37v4.626a1.387,1.387,0,0,0,.82,1.275c4.189,1.829,4.573,11.942,5.678,19.252,1.173,7.762,10.815,9.247,20.847,9.3,6.528.032,11.582-.993,15.222-2.673,7.438-3.433,8.694-21.334,9.416-22.958s4.515-1.263,4.515-1.263,3.794-.361,4.515,1.263,1.977,19.525,9.416,22.958c3.64,1.68,8.694,2.7,15.222,2.673,10.032-.049,19.675-1.534,20.848-9.3,1.1-7.31,1.49-17.423,5.679-19.252a1.387,1.387,0,0,0,.819-1.275V213.35a1.4,1.4,0,0,0-1.094-1.37" transform="translate(-550.854 -145.31)" fill="#2b6668"/>
      <path id="Path_20" data-name="Path 20" d="M855.224,222.3c-8.269-1.4-15.62-1.932-17.611-2.059-.253-.016-.5-.033-.754-.053-1.724-.135-12.749-.529-12.5,11.618.271,13.176,1.263,18.23,9.927,19.494s14.891.993,19.4-1.173,6.859-3.971,9.115-13.357,1.283-12.972-7.581-14.47" transform="translate(-570.065 -152.237)" fill="#fd965b"/>
      <path id="Path_21" data-name="Path 21" d="M1034.088,220.184c-.252.02-.5.037-.754.053-1.991.127-9.342.661-17.611,2.059-8.864,1.5-9.837,5.084-7.581,14.47s4.6,11.191,9.115,13.357,10.74,2.437,19.4,1.173,9.657-6.317,9.927-19.493c.25-12.147-10.776-11.754-12.5-11.618" transform="translate(-696.444 -152.237)" fill="#fd965b"/>
      <path id="Path_22" data-name="Path 22" d="M841.151,482.855c-5.674,11.524-22.495,10.572-26.707-1.562a3.093,3.093,0,0,1-.2-.745l-52.388,16.035v131.84H896.272V497.071l-53.985-16.524Z" transform="translate(-526.844 -332.311)" fill="#335352"/>
      <path id="Path_23" data-name="Path 23" d="M592.33,617.8H534.756a1.579,1.579,0,0,1-1.639-1.06,1.612,1.612,0,0,1-.058-1.433L594.632,561.6a17.274,17.274,0,1,0-22.708-26.036l-62.791,54.766a17.276,17.276,0,0,0-1.57,1.557,36.345,36.345,0,0,0,27.193,60.458H592.33a17.274,17.274,0,1,0,0-34.548" transform="translate(-344.618 -367.413)" fill="#fd965b"/>
      <path id="Path_24" data-name="Path 24" d="M633.368,535.563,587.2,575.835c3.753,8.879,11.049,19.2,25.154,23.9l43.728-38.14a17.274,17.274,0,0,0-22.709-26.036" transform="translate(-406.062 -367.413)" fill="#335352"/>
      <path id="Path_25" data-name="Path 25" d="M1200.9,590.329l-62.791-54.766a17.274,17.274,0,0,0-22.708,26.036l61.573,53.705a1.614,1.614,0,0,1-.058,1.433,1.58,1.58,0,0,1-1.639,1.06h-57.575a17.274,17.274,0,0,0,0,34.548h57.575a36.344,36.344,0,0,0,27.193-60.458,17.3,17.3,0,0,0-1.57-1.557" transform="translate(-760.981 -367.413)" fill="#fd965b"/>
      <path id="Path_26" data-name="Path 26" d="M1134.035,537.226A17.273,17.273,0,0,0,1135.7,561.6l43.727,38.14c14.1-4.7,21.4-15.024,25.154-23.9l-46.173-40.272a17.274,17.274,0,0,0-24.372,1.664" transform="translate(-781.275 -367.413)" fill="#335352"/>
      <path id="Path_27" data-name="Path 27" d="M838.646,534.392H634.665a7.177,7.177,0,0,0-7.177,7.177V670.421H845.823V541.569a7.177,7.177,0,0,0-7.177-7.177" transform="translate(-433.926 -369.547)" fill="#ffffe7"/>
      <path id="Path_28" data-name="Path 28" d="M627.484,701.87v32.163H845.82V626.378Z" transform="translate(-433.923 -433.158)" fill="#edecd6"/>
      <path id="Path_29" data-name="Path 29" d="M957.427,720.236a10.687,10.687,0,1,0,10.687,10.687,10.687,10.687,0,0,0-10.687-10.687" transform="translate(-654.698 -498.063)" fill="#8d978f"/>
      <path id="Path_30" data-name="Path 30" d="M966.573,736.944a10.687,10.687,0,0,1-19.581,5.924,10.686,10.686,0,1,0,19.5-7.194,10.767,10.767,0,0,1,.077,1.269" transform="translate(-654.872 -508.74)" fill="#7e8780"/>
      <path id="Path_31" data-name="Path 31" d="M870.924,272.7a7.777,7.777,0,0,1-7.479-5.649,7.776,7.776,0,1,0,14.957,0,7.777,7.777,0,0,1-7.479,5.649" transform="translate(-596.893 -184.675)" fill="#914c3a"/>
      <path id="Path_32" data-name="Path 32" d="M1053.678,272.7a7.777,7.777,0,0,1-7.479-5.649,7.776,7.776,0,1,0,14.958,0,7.777,7.777,0,0,1-7.479,5.649" transform="translate(-723.272 -184.675)" fill="#914c3a"/>
      <path id="Path_33" data-name="Path 33" d="M969.3,363.369c-2.571,0-4.655,3.126-4.655,6.983s2.084,6.983,4.655,6.983,4.655-3.126,4.655-6.983-2.084-6.983-4.655-6.983" transform="translate(-667.077 -251.28)" fill="#914c3a"/>
      <path id="Path_34" data-name="Path 34" d="M969.885,363.369c-2.034,0-3.758,1.96-4.392,4.686h8.785c-.634-2.726-2.359-4.686-4.392-4.686" transform="translate(-667.666 -251.28)" fill="#ffffe7"/>
      <rect id="Rectangle_8" data-name="Rectangle 8" width="157.111" height="9.372" transform="translate(496.922 294.521) rotate(-73.22)" fill="#89968c"/>
      <rect id="Rectangle_9" data-name="Rectangle 9" width="9.371" height="113.678" transform="translate(470.371 63.478) rotate(-40.157)" fill="#89968c"/>
      <path id="Path_35" data-name="Path 35" d="M1751.282,448.2a7.9,7.9,0,1,0,7.9,7.9,7.9,7.9,0,0,0-7.9-7.9" transform="translate(-1205.598 -309.943)" fill="#97a098"/>
      <path id="Path_36" data-name="Path 36" d="M1747,478.347a7.859,7.859,0,0,0,9.261,1.747l3.091-10.25-8.973-2.705Z" transform="translate(-1208.104 -323.04)" fill="#717f74"/>
      <path id="Path_37" data-name="Path 37" d="M1441.055,80.322a1.178,1.178,0,0,0-1.659-.153l-.347.288a1.179,1.179,0,0,0-.153,1.66l32.13,38.666a1.178,1.178,0,0,0,1.66.153l.347-.288a1.178,1.178,0,0,0,.153-1.66Z" transform="translate(-994.849 -55.25)" fill="#b6bab6"/>
      <path id="Path_38" data-name="Path 38" d="M1338.413,89.028l-44.1,23.185a3.205,3.205,0,0,0-.973,4.886l20.181,24.286,20.181,24.286a3.206,3.206,0,0,0,4.982-.063l30.865-39.107-15.569-18.737Z" transform="translate(-893.872 -61.565)" fill="#9ba59d"/>
      <path id="Path_39" data-name="Path 39" d="M1535.279,183.657l-4.708,3.972,8.964,10.787a1.4,1.4,0,0,0,2.16-1.8l-.714-.859,2.652-2.2Z" transform="translate(-1058.434 -127.003)" fill="#717f74"/>
      <path id="Path_40" data-name="Path 40" d="M1522.613,198.6l9.1,10.785,1.967-2.493-8.612-10.364Z" transform="translate(-1052.931 -135.908)" fill="#717f74"/>
      <path id="Path_41" data-name="Path 41" d="M1613.749,915.876v.4h9.669l4.092-13.573h-9.788Z" transform="translate(-1115.954 -624.243)" fill="#717f74"/>
      <path id="Path_42" data-name="Path 42" d="M1532.2,918.032c-18.944,0-35.6,7.045-45.17,17.687h90.341c-9.573-10.642-26.226-17.687-45.171-17.687" transform="translate(-1028.322 -634.845)" fill="#89968c"/>
      <path id="Path_43" data-name="Path 43" d="M1550.729,922.661c5.487,3.368,14.866,5.588,25.52,5.588s20.033-2.22,25.52-5.588a72.66,72.66,0,0,0-51.041,0" transform="translate(-1072.374 -634.845)" fill="#a3afa5"/>
      <path id="Path_44" data-name="Path 44" d="M1751.282,448.2a7.9,7.9,0,1,0,7.9,7.9,7.9,7.9,0,0,0-7.9-7.9" transform="translate(-1205.598 -309.943)" fill="#97a098"/>
      <path id="Path_45" data-name="Path 45" d="M1466.654,76.848a11.451,11.451,0,0,0-16.126-1.488l-1.239,1.029,30.414,36.6,1.238-1.029a11.451,11.451,0,0,0,1.489-16.126Z" transform="translate(-1002.225 -50.284)" fill="#89968c"/>
      <path id="Path_46" data-name="Path 46" d="M1450.528,75.364l-1.239,1.029,7.271,8.75,1.227-1.02a11.444,11.444,0,0,0,3.972-10.714,11.444,11.444,0,0,0-11.231,1.954" transform="translate(-1002.225 -50.288)" fill="#9ba59d"/>
      <path id="Path_47" data-name="Path 47" d="M1338.413,89.028l-44.1,23.185a3.205,3.205,0,0,0-.973,4.886l20.181,24.286,20.181,24.286a3.206,3.206,0,0,0,4.982-.063l30.865-39.107-15.569-18.737Z" transform="translate(-893.872 -61.565)" fill="#9ba59d"/>
      <path id="Path_48" data-name="Path 48" d="M1449.395,90.449a1.179,1.179,0,0,0-1.66-.153l-.347.288a1.178,1.178,0,0,0-.153,1.66l32.13,38.666a1.178,1.178,0,0,0,1.66.153l.347-.288a1.179,1.179,0,0,0,.153-1.66Z" transform="translate(-1000.617 -62.254)" fill="#b6bab6"/>
      <path id="Path_49" data-name="Path 49" d="M1293.168,135.373a3.18,3.18,0,0,0,.566,1.009l20.181,24.287,20.182,24.286a3.205,3.205,0,0,0,4.981-.063l30.835-39.068-24.024-28.91Z" transform="translate(-894.263 -80.849)" fill="#8f9991"/>
      <path id="Path_50" data-name="Path 50" d="M1430.443,843.632h-40.527a2.7,2.7,0,0,0-2.658,3.183l6.779,37.455h31.339l6.948-38.385a1.912,1.912,0,0,0-1.881-2.252" transform="translate(-959.299 -583.395)" fill="#a07457"/>
      <path id="Path_51" data-name="Path 51" d="M1388.621,843.632a1.912,1.912,0,0,0-1.881,2.252l6.452,35.648h24.356a4.366,4.366,0,0,0,4.3-3.588l6.21-34.312h-39.434Z" transform="translate(-958.95 -583.395)" fill="#b78b68"/>
      <path id="Path_52" data-name="Path 52" d="M1445.039,639.474a17.786,17.786,0,0,0,0,28.045,17.786,17.786,0,0,0,0-28.045" transform="translate(-994.553 -442.214)" fill="#7d966c"/>
      <path id="Path_53" data-name="Path 53" d="M1445.039,693.439a17.766,17.766,0,0,1-6.793-12.722c-.031.429-.052.862-.052,1.3a17.762,17.762,0,0,0,6.845,14.022,17.762,17.762,0,0,0,6.845-14.022c0-.438-.021-.87-.052-1.3a17.766,17.766,0,0,1-6.793,12.722" transform="translate(-994.553 -470.735)" fill="#667c55"/>
      <path id="Path_54" data-name="Path 54" d="M1468.609,727.848a14.738,14.738,0,0,0-6.219,11.357,14.759,14.759,0,0,0,19-13.44,14.739,14.739,0,0,0-12.781,2.083" transform="translate(-1011.285 -501.454)" fill="#7d966c"/>
      <path id="Path_55" data-name="Path 55" d="M1475.3,736.042a16.509,16.509,0,0,1-12.906,4.046c0,.02,0,.039,0,.059a14.759,14.759,0,0,0,19-13.44c-.253-.076-.508-.144-.765-.207a16.473,16.473,0,0,1-5.324,9.542" transform="translate(-1011.284 -502.395)" fill="#667c55"/>
      <path id="Path_56" data-name="Path 56" d="M1469.054,789.049a14.738,14.738,0,0,0-8.671,9.617,14.759,14.759,0,0,0,21.587-8.7,14.738,14.738,0,0,0-12.916-.92" transform="translate(-1009.897 -544.908)" fill="#7d966c"/>
      <path id="Path_57" data-name="Path 57" d="M1473.892,801.271a16.511,16.511,0,0,1-13.491.961c-.006.019-.013.037-.018.057a14.759,14.759,0,0,0,21.587-8.7q-.343-.2-.7-.378a16.477,16.477,0,0,1-7.381,8.058" transform="translate(-1009.897 -548.529)" fill="#667c55"/>
      <path id="Path_58" data-name="Path 58" d="M1409.058,727.848a14.739,14.739,0,0,0-12.78-2.083,14.759,14.759,0,0,0,19,13.44,14.738,14.738,0,0,0-6.219-11.357" transform="translate(-965.567 -501.454)" fill="#7d966c"/>
      <path id="Path_59" data-name="Path 59" d="M1402.368,736.042a16.474,16.474,0,0,1-5.324-9.542c-.257.063-.512.131-.765.207a14.759,14.759,0,0,0,19,13.44c0-.02,0-.039,0-.059a16.51,16.51,0,0,1-12.906-4.046" transform="translate(-965.567 -502.395)" fill="#667c55"/>
      <path id="Path_60" data-name="Path 60" d="M1402.814,789.049a14.739,14.739,0,0,0-12.916.92,14.759,14.759,0,0,0,21.587,8.7,14.738,14.738,0,0,0-8.671-9.617" transform="translate(-961.155 -544.908)" fill="#7d966c"/>
      <path id="Path_61" data-name="Path 61" d="M1397.976,801.271a16.478,16.478,0,0,1-7.381-8.058q-.352.18-.7.378a14.76,14.76,0,0,0,21.587,8.7c-.006-.019-.013-.037-.018-.057a16.512,16.512,0,0,1-13.491-.961" transform="translate(-961.155 -548.529)" fill="#667c55"/>
      <rect id="Rectangle_10" data-name="Rectangle 10" width="2.053" height="37.168" transform="translate(449.459 223.069)" fill="#667c55"/>
    </g>
  </g>
</svg>
