<svg xmlns="http://www.w3.org/2000/svg" width="31.009" height="30.977" viewBox="0 0 31.009 30.977">
  <g id="pencil" transform="translate(0 -0.247)">
    <path id="Path_90" data-name="Path 90" d="M19.149,82.473,2.088,99.535a.68.68,0,0,0-.177.312L.019,107.438a.672.672,0,0,0,.651.834.667.667,0,0,0,.163-.02l7.591-1.891a.671.671,0,0,0,.312-.177L25.8,89.122Zm0,0" transform="translate(0 -77.049)" fill="#fff"/>
    <path id="Path_91" data-name="Path 91" d="M343.3,3.1l-1.9-1.9a3.439,3.439,0,0,0-4.75,0l-2.326,2.326,6.649,6.649L343.3,7.847a3.359,3.359,0,0,0,0-4.75Zm0,0" transform="translate(-313.278 0)" fill="#fff"/>
  </g>
</svg>
