<svg xmlns="http://www.w3.org/2000/svg" width="27.222" height="35" viewBox="0 0 27.222 35">
  <g id="rubbish" transform="translate(-42.667)">
    <g id="Group_30" data-name="Group 30" transform="translate(42.667)">
      <g id="Group_29" data-name="Group 29" transform="translate(0)">
        <path id="Path_92" data-name="Path 92" d="M64,108.666a3.9,3.9,0,0,0,3.889,3.889H83.445a3.9,3.9,0,0,0,3.889-3.889V85.333H64Zm4.793-13.844,2.751-2.751,4.122,4.122,4.122-4.122,2.751,2.751-4.122,4.122,4.122,4.122-2.751,2.751L75.667,101.7l-4.122,4.122-2.751-2.751,4.122-4.122Z" transform="translate(-62.056 -77.555)" fill="#c56060"/>
        <path id="Path_93" data-name="Path 93" d="M63.084,1.944,61.139,0H51.417L49.472,1.944H42.667V5.833H69.889V1.944Z" transform="translate(-42.667)" fill="#c56060"/>
      </g>
    </g>
  </g>
</svg>
