<svg xmlns="http://www.w3.org/2000/svg" width="32.948" height="27.457" viewBox="0 0 32.948 27.457">
  <g id="work" transform="translate(0 -2)">
    <path id="Path_78" data-name="Path 78" d="M17.61,8.178A1.373,1.373,0,0,1,16.237,6.8V4.746H10.746V6.8A1.373,1.373,0,1,1,8,6.8V4.746A2.748,2.748,0,0,1,10.746,2h5.491a2.748,2.748,0,0,1,2.746,2.746V6.8A1.373,1.373,0,0,1,17.61,8.178Z" transform="translate(2.983 0)" fill="#fff"/>
    <path id="Path_79" data-name="Path 79" d="M17.449,16.782a2.828,2.828,0,0,1-.975.165,3.008,3.008,0,0,1-1.057-.192L0,11.62V22.095A3.773,3.773,0,0,0,3.775,25.87h25.4a3.773,3.773,0,0,0,3.775-3.775V11.62Z" transform="translate(0 3.587)" fill="#fff"/>
    <path id="Path_80" data-name="Path 80" d="M32.948,8.775v3.144L16.8,17.3a1.016,1.016,0,0,1-.659,0L0,11.919V8.775A3.773,3.773,0,0,1,3.775,5h25.4A3.773,3.773,0,0,1,32.948,8.775Z" transform="translate(0 1.119)" fill="#fff"/>
  </g>
</svg>
