<svg id="youtube" xmlns="http://www.w3.org/2000/svg" width="37.693" height="37.693" viewBox="0 0 37.693 37.693">
  <path id="Path_88" data-name="Path 88" d="M224.113,215.1l6.131-3.531-6.131-3.531Zm0,0" transform="translate(-207.614 -192.723)" fill="#fff"/>
  <path id="Path_89" data-name="Path 89" d="M18.847,0A18.847,18.847,0,1,0,37.693,18.847,18.849,18.849,0,0,0,18.847,0ZM30.623,18.866a31.106,31.106,0,0,1-.485,5.665,2.951,2.951,0,0,1-2.076,2.076c-1.843.485-9.215.485-9.215.485s-7.353,0-9.215-.5a2.951,2.951,0,0,1-2.076-2.076,30.969,30.969,0,0,1-.485-5.665,31.085,31.085,0,0,1,.485-5.665,3.011,3.011,0,0,1,2.076-2.1c1.843-.485,9.215-.485,9.215-.485s7.372,0,9.215.5a2.951,2.951,0,0,1,2.076,2.076,29.519,29.519,0,0,1,.485,5.684Zm0,0" fill="#fff"/>
</svg>
